<svg xmlns="http://www.w3.org/2000/svg" xmlns:xlink="http://www.w3.org/1999/xlink" width="60" zoomAndPan="magnify" viewBox="0 0 45 44.999999" height="60" preserveAspectRatio="xMidYMid meet" version="1.0"><defs><clipPath id="a4b610270a"><path d="M 11 1.34375 L 41.707031 1.34375 L 41.707031 43.34375 L 11 43.34375 Z M 11 1.34375 " clip-rule="nonzero"/></clipPath><clipPath id="cc542ecb59"><path d="M 3.457031 20 L 12 20 L 12 25 L 3.457031 25 Z M 3.457031 20 " clip-rule="nonzero"/></clipPath></defs><g clip-path="url(#a4b610270a)"><path fill="#242426" d="M 35.332031 1.34375 L 18.332031 1.34375 C 17.914062 1.34375 17.5 1.386719 17.089844 1.464844 C 16.679688 1.546875 16.28125 1.667969 15.898438 1.828125 C 15.511719 1.984375 15.144531 2.179688 14.796875 2.410156 C 14.449219 2.640625 14.125 2.902344 13.832031 3.191406 C 13.535156 3.484375 13.269531 3.804688 13.039062 4.148438 C 12.804688 4.492188 12.609375 4.851562 12.449219 5.234375 C 12.289062 5.617188 12.167969 6.007812 12.082031 6.414062 C 12 6.820312 11.960938 7.230469 11.957031 7.640625 L 11.957031 20.242188 L 25.960938 20.242188 L 23.199219 17.535156 C 23 17.335938 22.847656 17.109375 22.742188 16.847656 C 22.632812 16.589844 22.582031 16.324219 22.582031 16.042969 C 22.582031 15.765625 22.636719 15.496094 22.742188 15.238281 C 22.851562 14.980469 23.007812 14.753906 23.207031 14.558594 C 23.40625 14.359375 23.636719 14.207031 23.894531 14.101562 C 24.15625 13.996094 24.429688 13.941406 24.710938 13.941406 C 24.992188 13.941406 25.265625 13.992188 25.523438 14.097656 C 25.785156 14.203125 26.015625 14.355469 26.21875 14.550781 L 32.59375 20.851562 C 32.792969 21.050781 32.945312 21.277344 33.050781 21.535156 C 33.160156 21.792969 33.214844 22.0625 33.214844 22.34375 C 33.214844 22.621094 33.160156 22.890625 33.050781 23.148438 C 32.945312 23.40625 32.792969 23.636719 32.59375 23.832031 L 26.21875 30.132812 C 26.015625 30.328125 25.785156 30.480469 25.523438 30.585938 C 25.265625 30.691406 24.992188 30.746094 24.710938 30.746094 C 24.429688 30.746094 24.15625 30.691406 23.894531 30.582031 C 23.636719 30.476562 23.40625 30.324219 23.207031 30.128906 C 23.007812 29.929688 22.851562 29.703125 22.742188 29.445312 C 22.636719 29.1875 22.582031 28.917969 22.582031 28.640625 C 22.578125 28.363281 22.632812 28.09375 22.742188 27.835938 C 22.847656 27.578125 23 27.347656 23.199219 27.152344 L 25.960938 24.441406 L 11.957031 24.441406 L 11.957031 37.042969 C 11.960938 37.457031 12 37.863281 12.082031 38.269531 C 12.167969 38.675781 12.289062 39.070312 12.449219 39.449219 C 12.609375 39.832031 12.804688 40.195312 13.039062 40.539062 C 13.269531 40.882812 13.535156 41.199219 13.832031 41.492188 C 14.125 41.785156 14.449219 42.046875 14.796875 42.273438 C 15.144531 42.503906 15.511719 42.699219 15.898438 42.859375 C 16.28125 43.015625 16.679688 43.136719 17.089844 43.21875 C 17.5 43.300781 17.914062 43.339844 18.332031 43.34375 L 35.332031 43.34375 C 35.75 43.339844 36.164062 43.300781 36.574219 43.21875 C 36.984375 43.136719 37.382812 43.015625 37.769531 42.859375 C 38.15625 42.699219 38.523438 42.503906 38.871094 42.273438 C 39.21875 42.046875 39.539062 41.785156 39.835938 41.492188 C 40.132812 41.199219 40.394531 40.882812 40.628906 40.539062 C 40.859375 40.195312 41.058594 39.832031 41.21875 39.449219 C 41.378906 39.070312 41.5 38.675781 41.582031 38.269531 C 41.664062 37.863281 41.707031 37.457031 41.707031 37.042969 L 41.707031 7.640625 C 41.707031 7.230469 41.664062 6.820312 41.582031 6.414062 C 41.5 6.007812 41.378906 5.617188 41.21875 5.234375 C 41.058594 4.851562 40.859375 4.492188 40.628906 4.148438 C 40.394531 3.804688 40.132812 3.484375 39.835938 3.191406 C 39.539062 2.902344 39.21875 2.640625 38.871094 2.410156 C 38.523438 2.179688 38.15625 1.984375 37.769531 1.828125 C 37.382812 1.667969 36.984375 1.546875 36.574219 1.464844 C 36.164062 1.386719 35.75 1.34375 35.332031 1.34375 Z M 35.332031 1.34375 " fill-opacity="1" fill-rule="nonzero"/></g><g clip-path="url(#cc542ecb59)"><path fill="#242426" d="M 5.582031 20.242188 C 5.300781 20.242188 5.03125 20.296875 4.769531 20.402344 C 4.507812 20.507812 4.28125 20.660156 4.082031 20.859375 C 3.882812 21.054688 3.726562 21.28125 3.621094 21.539062 C 3.511719 21.796875 3.457031 22.0625 3.457031 22.34375 C 3.457031 22.621094 3.511719 22.890625 3.621094 23.144531 C 3.726562 23.402344 3.882812 23.628906 4.082031 23.828125 C 4.28125 24.023438 4.507812 24.175781 4.769531 24.28125 C 5.03125 24.390625 5.300781 24.441406 5.582031 24.441406 L 11.957031 24.441406 L 11.957031 20.242188 Z M 5.582031 20.242188 " fill-opacity="1" fill-rule="nonzero"/></g></svg>