<svg id="SvgjsSvg1181" width="288" height="288" xmlns="http://www.w3.org/2000/svg" version="1.1" xmlns:xlink="http://www.w3.org/1999/xlink" xmlns:svgjs="http://svgjs.com/svgjs"><circle id="SvgjsCircle1187" r="144" cx="144" cy="144" transform="matrix(0.36,0,0,0.36,92.16,92.16)" fill="#ffffff"></circle><defs id="SvgjsDefs1182"></defs><g id="SvgjsG1183" transform="matrix(0.4652,0,0,0.4652,77.0112,77.0112)"><svg xmlns="http://www.w3.org/2000/svg" viewBox="0 0 64 64" width="288" height="288"><path fill="#5200ff" d="M44.975 23.436a2 2 0 0 1 .075 2.827L31.95 40.08a5.012 5.012 0 0 1-3.629 1.56h-.12a5.01 5.01 0 0 1-3.669-1.74l-5.646-6.557a2 2 0 1 1 3.031-2.611l5.646 6.559a.993.993 0 0 0 .734.347.936.936 0 0 0 .75-.311l13.1-13.817a2 2 0 0 1 2.828-.074ZM58 32A26 26 0 1 1 32 6a26.03 26.03 0 0 1 26 26Zm-4 0a22.034 22.034 0 0 0-13.546-20.309A21.8 21.8 0 0 0 35 11a22 22 0 0 0-8.391 42.329A22 22 0 0 0 54 32Z" class="color222 svgShape"></path></svg></g></svg>