<svg width="31" height="31" viewBox="0 0 31 31" fill="none" xmlns="http://www.w3.org/2000/svg">
<g style="mix-blend-mode:overlay" filter="url(#filter0_f_5_78)">
<circle cx="15.5" cy="15.5" r="11" stroke="url(#paint0_linear_5_78)"/>
</g>
<g style="mix-blend-mode:overlay">
<circle cx="15.5" cy="15.5" r="10" fill="black" fill-opacity="0.2"/>
<circle cx="15.5" cy="15.5" r="10" stroke="url(#paint1_linear_5_78)"/>
</g>
<g filter="url(#filter1_d_5_78)">
<path d="M17.5187 15.5581C17.5187 15.7678 17.538 16.0338 17.5643 16.2989C17.624 16.8996 18.2319 17.2888 18.7623 17.0004C19.2154 16.754 19.6291 16.4297 19.9543 16.0071C20.1582 15.7421 20.1582 15.3741 19.9544 15.1092C19.6291 14.6865 19.2155 14.3623 18.7623 14.1159C18.2319 13.8275 17.6241 14.2166 17.5643 14.8173C17.538 15.0824 17.5187 15.3484 17.5187 15.5581Z" stroke="url(#paint2_linear_5_78)" stroke-linecap="round" stroke-linejoin="round"/>
<path d="M16.0136 12.6686C15.992 12.0777 15.6257 11.5925 15.147 11.5462C14.7119 11.5041 14.2638 11.4821 13.8061 11.4821C13.3484 11.4821 12.9003 11.5041 12.4652 11.5462C11.9865 11.5925 11.6202 12.0777 11.5986 12.6686C11.5652 13.5811 11.5476 14.5284 11.5476 15.5C11.5476 16.4715 11.5652 17.4188 11.5986 18.3314C11.6202 18.9222 11.9865 19.4074 12.4652 19.4538C12.9003 19.4959 13.3484 19.5178 13.8061 19.5178C14.2638 19.5178 14.7119 19.4959 15.147 19.4538C15.6257 19.4074 15.992 18.9222 16.0136 18.3314" stroke="url(#paint3_linear_5_78)" stroke-linecap="round"/>
<path d="M12.9291 15.5582L16.8762 15.5582" stroke="url(#paint4_linear_5_78)" stroke-linecap="round" stroke-linejoin="round"/>
</g>
<defs>
<filter id="filter0_f_5_78" x="0" y="0" width="31" height="31" filterUnits="userSpaceOnUse" color-interpolation-filters="sRGB">
<feFlood flood-opacity="0" result="BackgroundImageFix"/>
<feBlend mode="normal" in="SourceGraphic" in2="BackgroundImageFix" result="shape"/>
<feGaussianBlur stdDeviation="2" result="effect1_foregroundBlur_5_78"/>
</filter>
<filter id="filter1_d_5_78" x="9" y="10.9821" width="13.6072" height="13.0357" filterUnits="userSpaceOnUse" color-interpolation-filters="sRGB">
<feFlood flood-opacity="0" result="BackgroundImageFix"/>
<feColorMatrix in="SourceAlpha" type="matrix" values="0 0 0 0 0 0 0 0 0 0 0 0 0 0 0 0 0 0 127 0" result="hardAlpha"/>
<feOffset dy="2"/>
<feGaussianBlur stdDeviation="1"/>
<feComposite in2="hardAlpha" operator="out"/>
<feColorMatrix type="matrix" values="0 0 0 0 0 0 0 0 0 0 0 0 0 0 0 0 0 0 0.25 0"/>
<feBlend mode="normal" in2="BackgroundImageFix" result="effect1_dropShadow_5_78"/>
<feBlend mode="normal" in="SourceGraphic" in2="effect1_dropShadow_5_78" result="shape"/>
</filter>
<linearGradient id="paint0_linear_5_78" x1="5" y1="5" x2="26" y2="26" gradientUnits="userSpaceOnUse">
<stop stop-color="#C322FF"/>
<stop offset="1" stop-color="#00BAE1"/>
</linearGradient>
<linearGradient id="paint1_linear_5_78" x1="6.575" y1="3.95" x2="23.9" y2="26" gradientUnits="userSpaceOnUse">
<stop stop-color="#E8A9FF"/>
<stop offset="1" stop-color="#53E1FF"/>
</linearGradient>
<linearGradient id="paint2_linear_5_78" x1="20.3807" y1="17.148" x2="16.8944" y2="15.1522" gradientUnits="userSpaceOnUse">
<stop stop-color="#E8A9FF"/>
<stop offset="1" stop-color="#53E1FF"/>
</linearGradient>
<linearGradient id="paint3_linear_5_78" x1="11.8826" y1="11.0803" x2="18.3162" y2="15.6311" gradientUnits="userSpaceOnUse">
<stop stop-color="#E8A9FF"/>
<stop offset="1" stop-color="#53E1FF"/>
</linearGradient>
<linearGradient id="paint4_linear_5_78" x1="16.5802" y1="15.6082" x2="16.255" y2="13.9747" gradientUnits="userSpaceOnUse">
<stop stop-color="#E8A9FF"/>
<stop offset="1" stop-color="#53E1FF"/>
</linearGradient>
</defs>
</svg>
