<svg id="SvgjsSvg1135" width="288" height="288" xmlns="http://www.w3.org/2000/svg" version="1.1" xmlns:xlink="http://www.w3.org/1999/xlink" xmlns:svgjs="http://svgjs.com/svgjs"><g id="SvgjsG1148" transform="matrix(0.51,0,0,0.51,70.56,70.56)" fill="#fde2fd"><circle id="SvgjsCircle1149" r="144" cx="144" cy="144"></circle><rect id="SvgjsRect1150" width="159" height="159" x="129" y="129" rx="15" ry="15"></rect></g><defs id="SvgjsDefs1136"></defs><g id="SvgjsG1137" transform="matrix(0.4652,0,0,0.4652,77.0112040802002,77.0112040802002)"><svg xmlns="http://www.w3.org/2000/svg" id="Layer_1" x="0" y="0" version="1.1" viewBox="0 0 29 29" xml:space="preserve" width="288" height="288"><path d="M14.5 27C7.607 27 2 21.393 2 14.5S7.607 2 14.5 2 27 7.607 27 14.5 21.393 27 14.5 27zm0-23C8.71 4 4 8.71 4 14.5S8.71 25 14.5 25 25 20.29 25 14.5 20.29 4 14.5 4z" fill="#2d6cdf" class="color000 svgShape"></path><circle cx="14.5" cy="14.5" r="2" fill="#2d6cdf" class="color000 svgShape"></circle><circle cx="8.5" cy="14.5" r="2" fill="#2d6cdf" class="color000 svgShape"></circle><circle cx="20.5" cy="14.5" r="2" fill="#2d6cdf" class="color000 svgShape"></circle></svg></g></svg>