<?xml version="1.0" encoding="UTF-8"?>
<!--Generator: Apple Native CoreSVG 232.5-->
<!DOCTYPE svg
PUBLIC "-//W3C//DTD SVG 1.1//EN"
       "http://www.w3.org/Graphics/SVG/1.1/DTD/svg11.dtd">
<svg version="1.1" xmlns="http://www.w3.org/2000/svg" xmlns:xlink="http://www.w3.org/1999/xlink" width="9.96094" height="9.96582">
 <g>
  <rect height="9.96582" opacity="0" width="9.96094" x="0" y="0"/>
  <path d="M4.98047 9.96582C7.70508 9.96582 9.96094 7.70996 9.96094 4.98535C9.96094 2.26562 7.7002 0.00488281 4.97559 0.00488281C2.25586 0.00488281 0 2.26562 0 4.98535C0 7.70996 2.26074 9.96582 4.98047 9.96582Z" fill="#ffffff" fill-opacity="0.85"/>
  <path d="M2.68066 7.54395C2.47559 7.54395 2.38281 7.41211 2.38281 7.22656C2.38281 6.67969 3.21289 5.24902 4.98047 5.24902C6.74805 5.24902 7.57812 6.67969 7.57812 7.22656C7.57812 7.41211 7.48535 7.54395 7.28027 7.54395ZM4.98047 4.83398C4.26758 4.8291 3.68652 4.22852 3.68652 3.41797C3.68652 2.66602 4.26758 2.04102 4.98047 2.04102C5.69336 2.04102 6.27441 2.66602 6.27441 3.41797C6.27441 4.22852 5.69336 4.83887 4.98047 4.83398Z" fill="#1e1e1e"/>
 </g>
</svg>
